<mxfile host="app.diagrams.net" modified="2022-03-21T07:58:26.869Z" agent="5.0 (Windows NT 10.0; Win64; x64) AppleWebKit/537.36 (KHTML, like Gecko) Chrome/99.0.4844.74 Safari/537.36" etag="fr0w9U80Jtgtzho0Oyot" version="17.1.3" type="github">
  <diagram id="f18A5wNA2KFybCveOD7d" name="Страница 1">
    <mxGraphModel dx="6826" dy="4059" grid="1" gridSize="10" guides="1" tooltips="1" connect="1" arrows="1" fold="1" page="1" pageScale="1" pageWidth="2336" pageHeight="1654" math="0" shadow="0">
      <root>
        <mxCell id="0" />
        <mxCell id="1" parent="0" />
        <mxCell id="X3EsQ4264umLRHrV6O9Y-74" value="" style="rounded=0;whiteSpace=wrap;html=1;fontSize=11;" parent="1" vertex="1">
          <mxGeometry x="1550" y="2135" width="1990" height="960" as="geometry" />
        </mxCell>
        <mxCell id="X3EsQ4264umLRHrV6O9Y-1" value="" style="rounded=0;whiteSpace=wrap;html=1;fontSize=11;" parent="1" vertex="1">
          <mxGeometry x="810" y="-1160" width="1100" height="780" as="geometry" />
        </mxCell>
        <mxCell id="X3EsQ4264umLRHrV6O9Y-2" value="" style="rounded=0;whiteSpace=wrap;html=1;fontSize=11;" parent="1" vertex="1">
          <mxGeometry x="-260" y="-48" width="3260" height="1780" as="geometry" />
        </mxCell>
        <mxCell id="X3EsQ4264umLRHrV6O9Y-33" value="" style="rounded=0;whiteSpace=wrap;html=1;fontSize=11;" parent="1" vertex="1">
          <mxGeometry x="-1490" y="2140" width="1720" height="960" as="geometry" />
        </mxCell>
        <mxCell id="BAuMj_wbTUl4ss61GLY4-1" value="" style="rounded=0;whiteSpace=wrap;html=1;" parent="1" vertex="1">
          <mxGeometry x="1290" y="-800" width="250" height="140" as="geometry" />
        </mxCell>
        <mxCell id="BAuMj_wbTUl4ss61GLY4-2" value="A-0" style="text;html=1;strokeColor=none;fillColor=none;align=center;verticalAlign=middle;whiteSpace=wrap;rounded=0;" parent="1" vertex="1">
          <mxGeometry x="1480" y="-690" width="60" height="30" as="geometry" />
        </mxCell>
        <mxCell id="BAuMj_wbTUl4ss61GLY4-3" value="&lt;b&gt;&lt;font style=&quot;font-size: 14px&quot;&gt;Заказ мебели по проекту&lt;/font&gt;&lt;/b&gt;" style="text;html=1;strokeColor=none;fillColor=none;align=center;verticalAlign=middle;whiteSpace=wrap;rounded=0;" parent="1" vertex="1">
          <mxGeometry x="1330" y="-750" width="170" height="30" as="geometry" />
        </mxCell>
        <mxCell id="BAuMj_wbTUl4ss61GLY4-4" value="" style="endArrow=classic;html=1;rounded=0;fontSize=14;edgeStyle=orthogonalEdgeStyle;entryX=0;entryY=0.5;entryDx=0;entryDy=0;" parent="1" target="BAuMj_wbTUl4ss61GLY4-22" edge="1">
          <mxGeometry width="50" height="50" relative="1" as="geometry">
            <mxPoint x="-100" y="355" as="sourcePoint" />
            <mxPoint x="450" y="440" as="targetPoint" />
            <Array as="points">
              <mxPoint x="-100" y="360" />
              <mxPoint x="220" y="360" />
              <mxPoint x="220" y="420" />
            </Array>
          </mxGeometry>
        </mxCell>
        <mxCell id="BAuMj_wbTUl4ss61GLY4-5" value="Пожелания покупателя" style="text;html=1;strokeColor=none;fillColor=none;align=center;verticalAlign=middle;whiteSpace=wrap;rounded=0;fontSize=14;" parent="1" vertex="1">
          <mxGeometry x="-70" y="320" width="80" height="30" as="geometry" />
        </mxCell>
        <mxCell id="BAuMj_wbTUl4ss61GLY4-6" value="" style="endArrow=classic;html=1;rounded=0;fontSize=14;entryX=0;entryY=0.75;entryDx=0;entryDy=0;edgeStyle=orthogonalEdgeStyle;" parent="1" target="BAuMj_wbTUl4ss61GLY4-28" edge="1">
          <mxGeometry width="50" height="50" relative="1" as="geometry">
            <mxPoint x="-100" y="520" as="sourcePoint" />
            <mxPoint x="30" y="520" as="targetPoint" />
            <Array as="points">
              <mxPoint x="580" y="520" />
              <mxPoint x="580" y="1065" />
            </Array>
          </mxGeometry>
        </mxCell>
        <mxCell id="BAuMj_wbTUl4ss61GLY4-7" value="&lt;span style=&quot;color: rgb(0 , 0 , 0) ; font-family: &amp;#34;helvetica&amp;#34; ; font-size: 14px ; font-style: normal ; font-weight: 400 ; letter-spacing: normal ; text-align: center ; text-indent: 0px ; text-transform: none ; word-spacing: 0px ; background-color: rgb(248 , 249 , 250) ; display: inline ; float: none&quot;&gt;Денежные средсттва&lt;/span&gt;" style="text;whiteSpace=wrap;html=1;fontSize=14;" parent="1" vertex="1">
          <mxGeometry x="-80" y="470" width="120" height="30" as="geometry" />
        </mxCell>
        <mxCell id="BAuMj_wbTUl4ss61GLY4-8" value="" style="endArrow=classic;html=1;rounded=0;fontSize=14;entryX=0.5;entryY=1;entryDx=0;entryDy=0;edgeStyle=orthogonalEdgeStyle;" parent="1" target="BAuMj_wbTUl4ss61GLY4-23" edge="1">
          <mxGeometry width="50" height="50" relative="1" as="geometry">
            <mxPoint x="440" y="1010" as="sourcePoint" />
            <mxPoint x="488" y="920" as="targetPoint" />
          </mxGeometry>
        </mxCell>
        <mxCell id="BAuMj_wbTUl4ss61GLY4-9" value="Продавец" style="text;html=1;strokeColor=none;fillColor=none;align=center;verticalAlign=middle;whiteSpace=wrap;rounded=0;fontSize=14;rotation=0;" parent="1" vertex="1">
          <mxGeometry x="440" y="975" width="60" height="30" as="geometry" />
        </mxCell>
        <mxCell id="BAuMj_wbTUl4ss61GLY4-10" value="Мастер" style="text;html=1;strokeColor=none;fillColor=none;align=center;verticalAlign=middle;whiteSpace=wrap;rounded=0;fontSize=14;rotation=0;" parent="1" vertex="1">
          <mxGeometry x="440" y="1070" width="60" height="30" as="geometry" />
        </mxCell>
        <mxCell id="BAuMj_wbTUl4ss61GLY4-11" value="" style="endArrow=classic;html=1;rounded=0;fontSize=14;entryX=0.25;entryY=1;entryDx=0;entryDy=0;edgeStyle=orthogonalEdgeStyle;" parent="1" target="BAuMj_wbTUl4ss61GLY4-24" edge="1">
          <mxGeometry width="50" height="50" relative="1" as="geometry">
            <mxPoint x="440" y="1100" as="sourcePoint" />
            <mxPoint x="480" y="1070" as="targetPoint" />
          </mxGeometry>
        </mxCell>
        <mxCell id="BAuMj_wbTUl4ss61GLY4-13" value="" style="endArrow=classic;html=1;rounded=0;fontSize=14;entryX=0.25;entryY=1;entryDx=0;entryDy=0;edgeStyle=orthogonalEdgeStyle;" parent="1" target="BAuMj_wbTUl4ss61GLY4-67" edge="1">
          <mxGeometry width="50" height="50" relative="1" as="geometry">
            <mxPoint x="450" y="1320" as="sourcePoint" />
            <mxPoint x="860" y="1370" as="targetPoint" />
            <Array as="points">
              <mxPoint x="1365" y="1320" />
              <mxPoint x="1365" y="1440" />
              <mxPoint x="2343" y="1440" />
            </Array>
          </mxGeometry>
        </mxCell>
        <mxCell id="BAuMj_wbTUl4ss61GLY4-14" value="Курьер" style="text;html=1;strokeColor=none;fillColor=none;align=center;verticalAlign=middle;whiteSpace=wrap;rounded=0;fontSize=14;rotation=0;" parent="1" vertex="1">
          <mxGeometry x="450" y="1280" width="60" height="30" as="geometry" />
        </mxCell>
        <mxCell id="BAuMj_wbTUl4ss61GLY4-18" value="" style="endArrow=classic;html=1;rounded=0;fontSize=14;entryX=0.25;entryY=0;entryDx=0;entryDy=0;edgeStyle=orthogonalEdgeStyle;" parent="1" target="BAuMj_wbTUl4ss61GLY4-24" edge="1">
          <mxGeometry width="50" height="50" relative="1" as="geometry">
            <mxPoint x="1083" y="15" as="sourcePoint" />
            <mxPoint x="1082.5" y="115" as="targetPoint" />
            <Array as="points">
              <mxPoint x="1083" y="150" />
              <mxPoint x="1393" y="150" />
            </Array>
          </mxGeometry>
        </mxCell>
        <mxCell id="BAuMj_wbTUl4ss61GLY4-19" value="Опыт мастера" style="text;html=1;strokeColor=none;fillColor=none;align=center;verticalAlign=middle;whiteSpace=wrap;rounded=0;fontSize=14;rotation=270;" parent="1" vertex="1">
          <mxGeometry x="1030" y="55" width="60" height="30" as="geometry" />
        </mxCell>
        <mxCell id="BAuMj_wbTUl4ss61GLY4-20" value="" style="endArrow=classic;html=1;rounded=0;fontSize=14;exitX=1.011;exitY=0.576;exitDx=0;exitDy=0;exitPerimeter=0;" parent="1" source="BAuMj_wbTUl4ss61GLY4-67" edge="1">
          <mxGeometry width="50" height="50" relative="1" as="geometry">
            <mxPoint x="2790" y="1278.89" as="sourcePoint" />
            <mxPoint x="2890" y="1278.89" as="targetPoint" />
          </mxGeometry>
        </mxCell>
        <mxCell id="BAuMj_wbTUl4ss61GLY4-21" value="Доставленная мебель по исходному проекту" style="text;html=1;strokeColor=none;fillColor=none;align=center;verticalAlign=middle;whiteSpace=wrap;rounded=0;fontSize=14;" parent="1" vertex="1">
          <mxGeometry x="2680" y="1228.89" width="190" height="28.33" as="geometry" />
        </mxCell>
        <mxCell id="BAuMj_wbTUl4ss61GLY4-22" value="" style="rounded=0;whiteSpace=wrap;html=1;" parent="1" vertex="1">
          <mxGeometry x="530" y="350" width="250" height="140" as="geometry" />
        </mxCell>
        <mxCell id="BAuMj_wbTUl4ss61GLY4-23" value="" style="rounded=0;whiteSpace=wrap;html=1;" parent="1" vertex="1">
          <mxGeometry x="950" y="520" width="250" height="140" as="geometry" />
        </mxCell>
        <mxCell id="BAuMj_wbTUl4ss61GLY4-24" value="" style="rounded=0;whiteSpace=wrap;html=1;" parent="1" vertex="1">
          <mxGeometry x="1330" y="717" width="250" height="140" as="geometry" />
        </mxCell>
        <mxCell id="BAuMj_wbTUl4ss61GLY4-25" value="A1" style="text;html=1;strokeColor=none;fillColor=none;align=center;verticalAlign=middle;whiteSpace=wrap;rounded=0;" parent="1" vertex="1">
          <mxGeometry x="720" y="460" width="60" height="30" as="geometry" />
        </mxCell>
        <mxCell id="BAuMj_wbTUl4ss61GLY4-26" value="A2" style="text;html=1;strokeColor=none;fillColor=none;align=center;verticalAlign=middle;whiteSpace=wrap;rounded=0;" parent="1" vertex="1">
          <mxGeometry x="1140" y="630" width="60" height="30" as="geometry" />
        </mxCell>
        <mxCell id="BAuMj_wbTUl4ss61GLY4-27" value="A3" style="text;html=1;strokeColor=none;fillColor=none;align=center;verticalAlign=middle;whiteSpace=wrap;rounded=0;" parent="1" vertex="1">
          <mxGeometry x="1520" y="827" width="60" height="30" as="geometry" />
        </mxCell>
        <mxCell id="BAuMj_wbTUl4ss61GLY4-28" value="" style="rounded=0;whiteSpace=wrap;html=1;" parent="1" vertex="1">
          <mxGeometry x="1830" y="960" width="250" height="140" as="geometry" />
        </mxCell>
        <mxCell id="BAuMj_wbTUl4ss61GLY4-29" value="A4" style="text;html=1;strokeColor=none;fillColor=none;align=center;verticalAlign=middle;whiteSpace=wrap;rounded=0;" parent="1" vertex="1">
          <mxGeometry x="2020" y="1070" width="60" height="30" as="geometry" />
        </mxCell>
        <mxCell id="BAuMj_wbTUl4ss61GLY4-31" value="" style="endArrow=classic;html=1;rounded=0;fontSize=14;entryX=0;entryY=0.75;entryDx=0;entryDy=0;edgeStyle=orthogonalEdgeStyle;" parent="1" target="BAuMj_wbTUl4ss61GLY4-23" edge="1">
          <mxGeometry width="50" height="50" relative="1" as="geometry">
            <mxPoint x="-110" y="431.78999999999996" as="sourcePoint" />
            <mxPoint x="20" y="431.78999999999996" as="targetPoint" />
            <Array as="points">
              <mxPoint x="-110" y="430" />
              <mxPoint x="420" y="430" />
              <mxPoint x="420" y="625" />
            </Array>
          </mxGeometry>
        </mxCell>
        <mxCell id="BAuMj_wbTUl4ss61GLY4-32" value="&lt;span style=&quot;color: rgb(0 , 0 , 0) ; font-family: &amp;#34;helvetica&amp;#34; ; font-size: 14px ; font-style: normal ; font-weight: 400 ; letter-spacing: normal ; text-align: center ; text-indent: 0px ; text-transform: none ; word-spacing: 0px ; background-color: rgb(248 , 249 , 250) ; display: inline ; float: none&quot;&gt;Статус покупателя&lt;/span&gt;" style="text;whiteSpace=wrap;html=1;fontSize=14;" parent="1" vertex="1">
          <mxGeometry x="-90" y="386.78999999999996" width="120" height="30" as="geometry" />
        </mxCell>
        <mxCell id="BAuMj_wbTUl4ss61GLY4-33" value="Создать проект" style="text;html=1;strokeColor=none;fillColor=none;align=center;verticalAlign=middle;whiteSpace=wrap;rounded=0;fontSize=14;" parent="1" vertex="1">
          <mxGeometry x="625" y="405" width="60" height="30" as="geometry" />
        </mxCell>
        <mxCell id="BAuMj_wbTUl4ss61GLY4-34" value="Консультант" style="text;html=1;strokeColor=none;fillColor=none;align=center;verticalAlign=middle;whiteSpace=wrap;rounded=0;fontSize=14;rotation=0;" parent="1" vertex="1">
          <mxGeometry x="450" y="827" width="60" height="30" as="geometry" />
        </mxCell>
        <mxCell id="BAuMj_wbTUl4ss61GLY4-35" value="" style="endArrow=classic;html=1;rounded=0;fontSize=14;entryX=0.5;entryY=1;entryDx=0;entryDy=0;edgeStyle=orthogonalEdgeStyle;" parent="1" target="BAuMj_wbTUl4ss61GLY4-22" edge="1">
          <mxGeometry width="50" height="50" relative="1" as="geometry">
            <mxPoint x="440" y="860" as="sourcePoint" />
            <mxPoint x="450" y="670" as="targetPoint" />
            <Array as="points">
              <mxPoint x="450" y="860" />
              <mxPoint x="655" y="860" />
            </Array>
          </mxGeometry>
        </mxCell>
        <mxCell id="BAuMj_wbTUl4ss61GLY4-36" value="Опыт консультанта" style="text;html=1;strokeColor=none;fillColor=none;align=center;verticalAlign=middle;whiteSpace=wrap;rounded=0;fontSize=14;rotation=270;" parent="1" vertex="1">
          <mxGeometry x="520" y="50" width="60" height="30" as="geometry" />
        </mxCell>
        <mxCell id="BAuMj_wbTUl4ss61GLY4-37" value="" style="endArrow=classic;html=1;rounded=0;fontSize=14;entryX=0.5;entryY=0;entryDx=0;entryDy=0;edgeStyle=orthogonalEdgeStyle;" parent="1" target="BAuMj_wbTUl4ss61GLY4-22" edge="1">
          <mxGeometry width="50" height="50" relative="1" as="geometry">
            <mxPoint x="580.4999999999995" y="15" as="sourcePoint" />
            <mxPoint x="580" y="115" as="targetPoint" />
            <Array as="points">
              <mxPoint x="580" y="183" />
              <mxPoint x="655" y="183" />
            </Array>
          </mxGeometry>
        </mxCell>
        <mxCell id="BAuMj_wbTUl4ss61GLY4-38" value="" style="endArrow=classic;html=1;rounded=0;fontSize=14;exitX=1;exitY=0.5;exitDx=0;exitDy=0;entryX=0;entryY=0.5;entryDx=0;entryDy=0;edgeStyle=orthogonalEdgeStyle;" parent="1" source="BAuMj_wbTUl4ss61GLY4-22" target="BAuMj_wbTUl4ss61GLY4-23" edge="1">
          <mxGeometry width="50" height="50" relative="1" as="geometry">
            <mxPoint x="510" y="530" as="sourcePoint" />
            <mxPoint x="940" y="420" as="targetPoint" />
            <Array as="points">
              <mxPoint x="860" y="420" />
              <mxPoint x="860" y="590" />
            </Array>
          </mxGeometry>
        </mxCell>
        <mxCell id="BAuMj_wbTUl4ss61GLY4-40" value="Проект мебели" style="text;html=1;strokeColor=none;fillColor=none;align=center;verticalAlign=middle;whiteSpace=wrap;rounded=0;fontSize=14;" parent="1" vertex="1">
          <mxGeometry x="800" y="386.79" width="60" height="30" as="geometry" />
        </mxCell>
        <mxCell id="BAuMj_wbTUl4ss61GLY4-41" value="" style="endArrow=classic;html=1;rounded=0;fontSize=14;entryX=0;entryY=0.75;entryDx=0;entryDy=0;edgeStyle=orthogonalEdgeStyle;" parent="1" target="BAuMj_wbTUl4ss61GLY4-67" edge="1">
          <mxGeometry width="50" height="50" relative="1" as="geometry">
            <mxPoint x="-110" y="600" as="sourcePoint" />
            <mxPoint x="1980" y="1320" as="targetPoint" />
            <Array as="points">
              <mxPoint x="180" y="600" />
              <mxPoint x="180" y="1620" />
              <mxPoint x="2200" y="1620" />
              <mxPoint x="2200" y="1305" />
            </Array>
          </mxGeometry>
        </mxCell>
        <mxCell id="BAuMj_wbTUl4ss61GLY4-42" value="&lt;span style=&quot;color: rgb(0 , 0 , 0) ; font-family: &amp;#34;helvetica&amp;#34; ; font-size: 14px ; font-style: normal ; font-weight: 400 ; letter-spacing: normal ; text-align: center ; text-indent: 0px ; text-transform: none ; word-spacing: 0px ; background-color: rgb(248 , 249 , 250) ; display: inline ; float: none&quot;&gt;Адресс доставки&lt;/span&gt;" style="text;whiteSpace=wrap;html=1;fontSize=14;" parent="1" vertex="1">
          <mxGeometry x="-90" y="550" width="120" height="30" as="geometry" />
        </mxCell>
        <mxCell id="BAuMj_wbTUl4ss61GLY4-43" value="" style="endArrow=classic;html=1;rounded=0;fontSize=14;entryX=0.75;entryY=1;entryDx=0;entryDy=0;edgeStyle=orthogonalEdgeStyle;" parent="1" target="BAuMj_wbTUl4ss61GLY4-67" edge="1">
          <mxGeometry width="50" height="50" relative="1" as="geometry">
            <mxPoint x="470" y="1490" as="sourcePoint" />
            <mxPoint x="1080" y="1560" as="targetPoint" />
          </mxGeometry>
        </mxCell>
        <mxCell id="BAuMj_wbTUl4ss61GLY4-44" value="Тех. средства доставки&lt;br&gt;" style="text;html=1;strokeColor=none;fillColor=none;align=center;verticalAlign=middle;whiteSpace=wrap;rounded=0;fontSize=14;rotation=0;" parent="1" vertex="1">
          <mxGeometry x="470" y="1440" width="60" height="30" as="geometry" />
        </mxCell>
        <mxCell id="BAuMj_wbTUl4ss61GLY4-45" value="Тех. средства производства" style="text;html=1;strokeColor=none;fillColor=none;align=center;verticalAlign=middle;whiteSpace=wrap;rounded=0;fontSize=14;rotation=0;" parent="1" vertex="1">
          <mxGeometry x="430" y="1170" width="60" height="30" as="geometry" />
        </mxCell>
        <mxCell id="BAuMj_wbTUl4ss61GLY4-46" value="" style="endArrow=classic;html=1;rounded=0;fontSize=14;entryX=0;entryY=1;entryDx=0;entryDy=0;edgeStyle=orthogonalEdgeStyle;" parent="1" target="BAuMj_wbTUl4ss61GLY4-27" edge="1">
          <mxGeometry width="50" height="50" relative="1" as="geometry">
            <mxPoint x="440" y="1220" as="sourcePoint" />
            <mxPoint x="490" y="1130" as="targetPoint" />
          </mxGeometry>
        </mxCell>
        <mxCell id="BAuMj_wbTUl4ss61GLY4-47" value="Оформить заказ" style="text;html=1;strokeColor=none;fillColor=none;align=center;verticalAlign=middle;whiteSpace=wrap;rounded=0;fontSize=14;" parent="1" vertex="1">
          <mxGeometry x="1045" y="575" width="60" height="30" as="geometry" />
        </mxCell>
        <mxCell id="BAuMj_wbTUl4ss61GLY4-50" value="Правила доставки" style="text;html=1;strokeColor=none;fillColor=none;align=center;verticalAlign=middle;whiteSpace=wrap;rounded=0;fontSize=14;rotation=270;" parent="1" vertex="1">
          <mxGeometry x="1980" y="65" width="60" height="30" as="geometry" />
        </mxCell>
        <mxCell id="BAuMj_wbTUl4ss61GLY4-52" value="" style="endArrow=classic;html=1;rounded=0;fontSize=14;entryX=0.5;entryY=0;entryDx=0;entryDy=0;edgeStyle=orthogonalEdgeStyle;" parent="1" target="BAuMj_wbTUl4ss61GLY4-67" edge="1">
          <mxGeometry width="50" height="50" relative="1" as="geometry">
            <mxPoint x="2040.4999999999995" y="20" as="sourcePoint" />
            <mxPoint x="2040" y="120" as="targetPoint" />
            <Array as="points">
              <mxPoint x="2030" y="20" />
              <mxPoint x="2030" y="600" />
              <mxPoint x="2405" y="600" />
            </Array>
          </mxGeometry>
        </mxCell>
        <mxCell id="BAuMj_wbTUl4ss61GLY4-54" value="Правила оплаты" style="text;html=1;strokeColor=none;fillColor=none;align=center;verticalAlign=middle;whiteSpace=wrap;rounded=0;fontSize=14;rotation=270;" parent="1" vertex="1">
          <mxGeometry x="1440" y="60" width="60" height="30" as="geometry" />
        </mxCell>
        <mxCell id="BAuMj_wbTUl4ss61GLY4-55" value="" style="endArrow=classic;html=1;rounded=0;fontSize=14;entryX=0.25;entryY=0;entryDx=0;entryDy=0;edgeStyle=orthogonalEdgeStyle;" parent="1" target="BAuMj_wbTUl4ss61GLY4-28" edge="1">
          <mxGeometry width="50" height="50" relative="1" as="geometry">
            <mxPoint x="1500.5" y="15" as="sourcePoint" />
            <mxPoint x="1500" y="115" as="targetPoint" />
            <Array as="points">
              <mxPoint x="1500" y="180" />
              <mxPoint x="1893" y="180" />
            </Array>
          </mxGeometry>
        </mxCell>
        <mxCell id="BAuMj_wbTUl4ss61GLY4-56" value="&lt;h1 style=&quot;font-size: inherit ; font-weight: inherit ; margin: 0.67em 0px ; font-family: &amp;#34;pt sans&amp;#34; , sans-serif ; background-color: rgb(255 , 255 , 255)&quot;&gt;Закон РФ &quot;О защите прав потребителей&quot;&lt;/h1&gt;" style="text;html=1;strokeColor=none;fillColor=none;align=center;verticalAlign=middle;whiteSpace=wrap;rounded=0;fontSize=14;rotation=270;" parent="1" vertex="1">
          <mxGeometry x="900" y="55" width="60" height="30" as="geometry" />
        </mxCell>
        <mxCell id="BAuMj_wbTUl4ss61GLY4-57" value="" style="endArrow=classic;html=1;rounded=0;fontSize=14;entryX=0.5;entryY=0;entryDx=0;entryDy=0;edgeStyle=orthogonalEdgeStyle;" parent="1" target="BAuMj_wbTUl4ss61GLY4-23" edge="1">
          <mxGeometry width="50" height="50" relative="1" as="geometry">
            <mxPoint x="960.5" y="10" as="sourcePoint" />
            <mxPoint x="960" y="110" as="targetPoint" />
          </mxGeometry>
        </mxCell>
        <mxCell id="BAuMj_wbTUl4ss61GLY4-58" value="" style="endArrow=classic;html=1;rounded=0;fontSize=14;exitX=1;exitY=0.5;exitDx=0;exitDy=0;entryX=0;entryY=0.5;entryDx=0;entryDy=0;edgeStyle=orthogonalEdgeStyle;" parent="1" source="BAuMj_wbTUl4ss61GLY4-23" target="BAuMj_wbTUl4ss61GLY4-28" edge="1">
          <mxGeometry width="50" height="50" relative="1" as="geometry">
            <mxPoint x="1070" y="700" as="sourcePoint" />
            <mxPoint x="1460" y="590" as="targetPoint" />
            <Array as="points">
              <mxPoint x="1290" y="590" />
              <mxPoint x="1290" y="1030" />
            </Array>
          </mxGeometry>
        </mxCell>
        <mxCell id="BAuMj_wbTUl4ss61GLY4-59" value="Оформленный заказ" style="text;html=1;strokeColor=none;fillColor=none;align=center;verticalAlign=middle;whiteSpace=wrap;rounded=0;fontSize=14;" parent="1" vertex="1">
          <mxGeometry x="1230" y="550" width="120" height="30" as="geometry" />
        </mxCell>
        <mxCell id="BAuMj_wbTUl4ss61GLY4-60" value="" style="endArrow=classic;html=1;rounded=0;fontSize=14;entryX=0.5;entryY=0;entryDx=0;entryDy=0;exitX=1;exitY=0.5;exitDx=0;exitDy=0;edgeStyle=orthogonalEdgeStyle;" parent="1" source="BAuMj_wbTUl4ss61GLY4-22" target="BAuMj_wbTUl4ss61GLY4-24" edge="1">
          <mxGeometry width="50" height="50" relative="1" as="geometry">
            <mxPoint x="1330" y="690" as="sourcePoint" />
            <mxPoint x="1380" y="640" as="targetPoint" />
            <Array as="points">
              <mxPoint x="860" y="420" />
              <mxPoint x="860" y="680" />
              <mxPoint x="1455" y="680" />
            </Array>
          </mxGeometry>
        </mxCell>
        <mxCell id="BAuMj_wbTUl4ss61GLY4-61" value="Изготовление заказ" style="text;html=1;strokeColor=none;fillColor=none;align=center;verticalAlign=middle;whiteSpace=wrap;rounded=0;fontSize=14;" parent="1" vertex="1">
          <mxGeometry x="1425" y="772" width="60" height="30" as="geometry" />
        </mxCell>
        <mxCell id="BAuMj_wbTUl4ss61GLY4-62" value="" style="endArrow=classic;html=1;rounded=0;fontSize=14;exitX=1;exitY=0.5;exitDx=0;exitDy=0;entryX=0;entryY=0.25;entryDx=0;entryDy=0;edgeStyle=orthogonalEdgeStyle;" parent="1" source="BAuMj_wbTUl4ss61GLY4-24" target="BAuMj_wbTUl4ss61GLY4-67" edge="1">
          <mxGeometry width="50" height="50" relative="1" as="geometry">
            <mxPoint x="1590" y="830" as="sourcePoint" />
            <mxPoint x="1760" y="787" as="targetPoint" />
            <Array as="points">
              <mxPoint x="1730" y="787" />
              <mxPoint x="1730" y="1235" />
            </Array>
          </mxGeometry>
        </mxCell>
        <mxCell id="BAuMj_wbTUl4ss61GLY4-63" value="Готовая мебель" style="text;html=1;strokeColor=none;fillColor=none;align=center;verticalAlign=middle;whiteSpace=wrap;rounded=0;fontSize=14;" parent="1" vertex="1">
          <mxGeometry x="1590" y="760" width="130" height="30" as="geometry" />
        </mxCell>
        <mxCell id="BAuMj_wbTUl4ss61GLY4-64" value="Оплата товара" style="text;html=1;strokeColor=none;fillColor=none;align=center;verticalAlign=middle;whiteSpace=wrap;rounded=0;fontSize=14;" parent="1" vertex="1">
          <mxGeometry x="1920" y="1015" width="60" height="30" as="geometry" />
        </mxCell>
        <mxCell id="BAuMj_wbTUl4ss61GLY4-66" value="" style="endArrow=classic;html=1;rounded=0;fontSize=14;entryX=0.5;entryY=1;entryDx=0;entryDy=0;exitX=0;exitY=1;exitDx=0;exitDy=0;edgeStyle=orthogonalEdgeStyle;" parent="1" source="BAuMj_wbTUl4ss61GLY4-9" target="BAuMj_wbTUl4ss61GLY4-28" edge="1">
          <mxGeometry width="50" height="50" relative="1" as="geometry">
            <mxPoint x="1190" y="1030" as="sourcePoint" />
            <mxPoint x="1240" y="980" as="targetPoint" />
            <Array as="points">
              <mxPoint x="440" y="1010" />
              <mxPoint x="1220" y="1010" />
              <mxPoint x="1220" y="1160" />
              <mxPoint x="1955" y="1160" />
            </Array>
          </mxGeometry>
        </mxCell>
        <mxCell id="BAuMj_wbTUl4ss61GLY4-67" value="" style="rounded=0;whiteSpace=wrap;html=1;" parent="1" vertex="1">
          <mxGeometry x="2280" y="1200" width="250" height="140" as="geometry" />
        </mxCell>
        <mxCell id="BAuMj_wbTUl4ss61GLY4-68" value="A5" style="text;html=1;strokeColor=none;fillColor=none;align=center;verticalAlign=middle;whiteSpace=wrap;rounded=0;" parent="1" vertex="1">
          <mxGeometry x="2470" y="1310" width="60" height="30" as="geometry" />
        </mxCell>
        <mxCell id="BAuMj_wbTUl4ss61GLY4-69" value="Доставка товара" style="text;html=1;strokeColor=none;fillColor=none;align=center;verticalAlign=middle;whiteSpace=wrap;rounded=0;fontSize=14;" parent="1" vertex="1">
          <mxGeometry x="2375" y="1255" width="60" height="30" as="geometry" />
        </mxCell>
        <mxCell id="BAuMj_wbTUl4ss61GLY4-70" value="" style="endArrow=classic;html=1;rounded=0;fontSize=14;entryX=0;entryY=0.5;entryDx=0;entryDy=0;exitX=1;exitY=0.5;exitDx=0;exitDy=0;edgeStyle=orthogonalEdgeStyle;" parent="1" source="BAuMj_wbTUl4ss61GLY4-28" target="BAuMj_wbTUl4ss61GLY4-67" edge="1">
          <mxGeometry width="50" height="50" relative="1" as="geometry">
            <mxPoint x="2070" y="1150" as="sourcePoint" />
            <mxPoint x="2120" y="1100" as="targetPoint" />
          </mxGeometry>
        </mxCell>
        <mxCell id="BAuMj_wbTUl4ss61GLY4-71" value="Чек оплаты" style="text;html=1;strokeColor=none;fillColor=none;align=center;verticalAlign=middle;whiteSpace=wrap;rounded=0;fontSize=14;" parent="1" vertex="1">
          <mxGeometry x="2100" y="1000" width="60" height="30" as="geometry" />
        </mxCell>
        <mxCell id="BAuMj_wbTUl4ss61GLY4-73" value="Пожелания покупателя" style="text;html=1;strokeColor=none;fillColor=none;align=center;verticalAlign=middle;whiteSpace=wrap;rounded=0;fontSize=14;" parent="1" vertex="1">
          <mxGeometry x="1050" y="-870" width="80" height="30" as="geometry" />
        </mxCell>
        <mxCell id="BAuMj_wbTUl4ss61GLY4-74" value="&lt;span style=&quot;color: rgb(0 , 0 , 0) ; font-family: &amp;#34;helvetica&amp;#34; ; font-size: 14px ; font-style: normal ; font-weight: 400 ; letter-spacing: normal ; text-align: center ; text-indent: 0px ; text-transform: none ; word-spacing: 0px ; background-color: rgb(248 , 249 , 250) ; display: inline ; float: none&quot;&gt;Денежные средсттва&lt;/span&gt;" style="text;whiteSpace=wrap;html=1;fontSize=14;" parent="1" vertex="1">
          <mxGeometry x="1040" y="-720" width="120" height="30" as="geometry" />
        </mxCell>
        <mxCell id="BAuMj_wbTUl4ss61GLY4-75" value="&lt;span style=&quot;color: rgb(0 , 0 , 0) ; font-family: &amp;#34;helvetica&amp;#34; ; font-size: 14px ; font-style: normal ; font-weight: 400 ; letter-spacing: normal ; text-align: center ; text-indent: 0px ; text-transform: none ; word-spacing: 0px ; background-color: rgb(248 , 249 , 250) ; display: inline ; float: none&quot;&gt;Статус покупателя&lt;/span&gt;" style="text;whiteSpace=wrap;html=1;fontSize=14;" parent="1" vertex="1">
          <mxGeometry x="1030" y="-803.21" width="120" height="30" as="geometry" />
        </mxCell>
        <mxCell id="BAuMj_wbTUl4ss61GLY4-76" value="&lt;span style=&quot;color: rgb(0 , 0 , 0) ; font-family: &amp;#34;helvetica&amp;#34; ; font-size: 14px ; font-style: normal ; font-weight: 400 ; letter-spacing: normal ; text-align: center ; text-indent: 0px ; text-transform: none ; word-spacing: 0px ; background-color: rgb(248 , 249 , 250) ; display: inline ; float: none&quot;&gt;Адресс доставки&lt;/span&gt;" style="text;whiteSpace=wrap;html=1;fontSize=14;" parent="1" vertex="1">
          <mxGeometry x="1030" y="-640" width="120" height="30" as="geometry" />
        </mxCell>
        <mxCell id="BAuMj_wbTUl4ss61GLY4-77" value="" style="endArrow=classic;html=1;rounded=0;fontSize=14;entryX=0;entryY=0.25;entryDx=0;entryDy=0;edgeStyle=orthogonalEdgeStyle;" parent="1" target="BAuMj_wbTUl4ss61GLY4-1" edge="1">
          <mxGeometry width="50" height="50" relative="1" as="geometry">
            <mxPoint x="1040" y="-830" as="sourcePoint" />
            <mxPoint x="1340" y="-760" as="targetPoint" />
            <Array as="points">
              <mxPoint x="1170" y="-830" />
              <mxPoint x="1170" y="-765" />
            </Array>
          </mxGeometry>
        </mxCell>
        <mxCell id="BAuMj_wbTUl4ss61GLY4-78" value="" style="endArrow=classic;html=1;rounded=0;fontSize=14;entryX=0;entryY=0.5;entryDx=0;entryDy=0;edgeStyle=orthogonalEdgeStyle;" parent="1" target="BAuMj_wbTUl4ss61GLY4-1" edge="1">
          <mxGeometry width="50" height="50" relative="1" as="geometry">
            <mxPoint x="1020" y="-750" as="sourcePoint" />
            <mxPoint x="1340" y="-760" as="targetPoint" />
          </mxGeometry>
        </mxCell>
        <mxCell id="BAuMj_wbTUl4ss61GLY4-79" value="" style="endArrow=classic;html=1;rounded=0;fontSize=14;entryX=0;entryY=0.75;entryDx=0;entryDy=0;edgeStyle=orthogonalEdgeStyle;" parent="1" target="BAuMj_wbTUl4ss61GLY4-1" edge="1">
          <mxGeometry width="50" height="50" relative="1" as="geometry">
            <mxPoint x="1040" y="-670" as="sourcePoint" />
            <mxPoint x="1340" y="-760" as="targetPoint" />
          </mxGeometry>
        </mxCell>
        <mxCell id="BAuMj_wbTUl4ss61GLY4-80" value="" style="endArrow=classic;html=1;rounded=0;fontSize=14;entryX=-0.009;entryY=0.93;entryDx=0;entryDy=0;entryPerimeter=0;edgeStyle=orthogonalEdgeStyle;" parent="1" target="BAuMj_wbTUl4ss61GLY4-1" edge="1">
          <mxGeometry width="50" height="50" relative="1" as="geometry">
            <mxPoint x="1040" y="-600" as="sourcePoint" />
            <mxPoint x="1300" y="-700" as="targetPoint" />
            <Array as="points">
              <mxPoint x="1250" y="-600" />
              <mxPoint x="1250" y="-670" />
            </Array>
          </mxGeometry>
        </mxCell>
        <mxCell id="BAuMj_wbTUl4ss61GLY4-81" value="Опыт мастера" style="text;html=1;strokeColor=none;fillColor=none;align=center;verticalAlign=middle;whiteSpace=wrap;rounded=0;fontSize=14;rotation=270;" parent="1" vertex="1">
          <mxGeometry x="1370" y="-1030" width="60" height="30" as="geometry" />
        </mxCell>
        <mxCell id="BAuMj_wbTUl4ss61GLY4-82" value="Опыт консультанта" style="text;html=1;strokeColor=none;fillColor=none;align=center;verticalAlign=middle;whiteSpace=wrap;rounded=0;fontSize=14;rotation=270;" parent="1" vertex="1">
          <mxGeometry x="1200" y="-1025" width="60" height="30" as="geometry" />
        </mxCell>
        <mxCell id="BAuMj_wbTUl4ss61GLY4-83" value="Правила доставки" style="text;html=1;strokeColor=none;fillColor=none;align=center;verticalAlign=middle;whiteSpace=wrap;rounded=0;fontSize=14;rotation=270;" parent="1" vertex="1">
          <mxGeometry x="1530" y="-1030" width="60" height="30" as="geometry" />
        </mxCell>
        <mxCell id="BAuMj_wbTUl4ss61GLY4-84" value="Правила оплаты" style="text;html=1;strokeColor=none;fillColor=none;align=center;verticalAlign=middle;whiteSpace=wrap;rounded=0;fontSize=14;rotation=270;" parent="1" vertex="1">
          <mxGeometry x="1440" y="-1030" width="60" height="30" as="geometry" />
        </mxCell>
        <mxCell id="BAuMj_wbTUl4ss61GLY4-85" value="&lt;h1 style=&quot;font-size: inherit ; font-weight: inherit ; margin: 0.67em 0px ; font-family: &amp;#34;pt sans&amp;#34; , sans-serif ; background-color: rgb(255 , 255 , 255)&quot;&gt;Закон РФ &quot;О защите прав потребителей&quot;&lt;/h1&gt;" style="text;html=1;strokeColor=none;fillColor=none;align=center;verticalAlign=middle;whiteSpace=wrap;rounded=0;fontSize=14;rotation=270;" parent="1" vertex="1">
          <mxGeometry x="1290" y="-1025" width="60" height="30" as="geometry" />
        </mxCell>
        <mxCell id="BAuMj_wbTUl4ss61GLY4-86" value="" style="endArrow=classic;html=1;rounded=0;fontSize=14;entryX=0;entryY=0;entryDx=0;entryDy=0;edgeStyle=orthogonalEdgeStyle;" parent="1" target="BAuMj_wbTUl4ss61GLY4-1" edge="1">
          <mxGeometry width="50" height="50" relative="1" as="geometry">
            <mxPoint x="1260" y="-1050" as="sourcePoint" />
            <mxPoint x="1450" y="-1000" as="targetPoint" />
            <Array as="points">
              <mxPoint x="1260" y="-1050" />
              <mxPoint x="1260" y="-830" />
              <mxPoint x="1290" y="-830" />
            </Array>
          </mxGeometry>
        </mxCell>
        <mxCell id="BAuMj_wbTUl4ss61GLY4-87" value="" style="endArrow=classic;html=1;rounded=0;fontSize=14;entryX=0.25;entryY=0;entryDx=0;entryDy=0;" parent="1" target="BAuMj_wbTUl4ss61GLY4-1" edge="1">
          <mxGeometry width="50" height="50" relative="1" as="geometry">
            <mxPoint x="1353" y="-1070" as="sourcePoint" />
            <mxPoint x="1450" y="-1000" as="targetPoint" />
          </mxGeometry>
        </mxCell>
        <mxCell id="BAuMj_wbTUl4ss61GLY4-88" value="" style="endArrow=classic;html=1;rounded=0;fontSize=14;entryX=0.5;entryY=0;entryDx=0;entryDy=0;edgeStyle=orthogonalEdgeStyle;" parent="1" target="BAuMj_wbTUl4ss61GLY4-1" edge="1">
          <mxGeometry width="50" height="50" relative="1" as="geometry">
            <mxPoint x="1430" y="-1050" as="sourcePoint" />
            <mxPoint x="1450" y="-1000" as="targetPoint" />
          </mxGeometry>
        </mxCell>
        <mxCell id="BAuMj_wbTUl4ss61GLY4-89" value="" style="endArrow=classic;html=1;rounded=0;fontSize=14;entryX=0.75;entryY=0;entryDx=0;entryDy=0;edgeStyle=orthogonalEdgeStyle;" parent="1" target="BAuMj_wbTUl4ss61GLY4-1" edge="1">
          <mxGeometry width="50" height="50" relative="1" as="geometry">
            <mxPoint x="1500" y="-1050" as="sourcePoint" />
            <mxPoint x="1450" y="-1000" as="targetPoint" />
          </mxGeometry>
        </mxCell>
        <mxCell id="BAuMj_wbTUl4ss61GLY4-90" value="" style="endArrow=classic;html=1;rounded=0;fontSize=14;entryX=1;entryY=0;entryDx=0;entryDy=0;edgeStyle=orthogonalEdgeStyle;" parent="1" target="BAuMj_wbTUl4ss61GLY4-1" edge="1">
          <mxGeometry width="50" height="50" relative="1" as="geometry">
            <mxPoint x="1590" y="-1050" as="sourcePoint" />
            <mxPoint x="1450" y="-1000" as="targetPoint" />
            <Array as="points">
              <mxPoint x="1590" y="-850" />
              <mxPoint x="1540" y="-850" />
            </Array>
          </mxGeometry>
        </mxCell>
        <mxCell id="BAuMj_wbTUl4ss61GLY4-91" value="Продавец" style="text;html=1;strokeColor=none;fillColor=none;align=center;verticalAlign=middle;whiteSpace=wrap;rounded=0;fontSize=14;rotation=-90;" parent="1" vertex="1">
          <mxGeometry x="1285" y="-470" width="60" height="30" as="geometry" />
        </mxCell>
        <mxCell id="BAuMj_wbTUl4ss61GLY4-92" value="Мастер" style="text;html=1;strokeColor=none;fillColor=none;align=center;verticalAlign=middle;whiteSpace=wrap;rounded=0;fontSize=14;rotation=-90;" parent="1" vertex="1">
          <mxGeometry x="1345" y="-470" width="60" height="30" as="geometry" />
        </mxCell>
        <mxCell id="BAuMj_wbTUl4ss61GLY4-93" value="Курьер" style="text;html=1;strokeColor=none;fillColor=none;align=center;verticalAlign=middle;whiteSpace=wrap;rounded=0;fontSize=14;rotation=-90;" parent="1" vertex="1">
          <mxGeometry x="1510" y="-470" width="60" height="30" as="geometry" />
        </mxCell>
        <mxCell id="BAuMj_wbTUl4ss61GLY4-94" value="Консультант" style="text;html=1;strokeColor=none;fillColor=none;align=center;verticalAlign=middle;whiteSpace=wrap;rounded=0;fontSize=14;rotation=270;" parent="1" vertex="1">
          <mxGeometry x="1210" y="-480" width="60" height="30" as="geometry" />
        </mxCell>
        <mxCell id="BAuMj_wbTUl4ss61GLY4-95" value="Тех. средства доставки&lt;br&gt;" style="text;html=1;strokeColor=none;fillColor=none;align=center;verticalAlign=middle;whiteSpace=wrap;rounded=0;fontSize=14;rotation=-90;" parent="1" vertex="1">
          <mxGeometry x="1580" y="-470" width="60" height="30" as="geometry" />
        </mxCell>
        <mxCell id="BAuMj_wbTUl4ss61GLY4-101" style="edgeStyle=orthogonalEdgeStyle;rounded=0;orthogonalLoop=1;jettySize=auto;html=1;entryX=0.75;entryY=1;entryDx=0;entryDy=0;fontSize=14;" parent="1" target="BAuMj_wbTUl4ss61GLY4-1" edge="1">
          <mxGeometry relative="1" as="geometry">
            <mxPoint x="1490" y="-430" as="sourcePoint" />
            <Array as="points">
              <mxPoint x="1490" y="-572" />
              <mxPoint x="1478" y="-572" />
            </Array>
          </mxGeometry>
        </mxCell>
        <mxCell id="BAuMj_wbTUl4ss61GLY4-96" value="Тех. средства производства" style="text;html=1;strokeColor=none;fillColor=none;align=center;verticalAlign=middle;whiteSpace=wrap;rounded=0;fontSize=14;rotation=-90;" parent="1" vertex="1">
          <mxGeometry x="1430" y="-470" width="60" height="30" as="geometry" />
        </mxCell>
        <mxCell id="BAuMj_wbTUl4ss61GLY4-97" value="" style="endArrow=classic;html=1;rounded=0;fontSize=14;entryX=0;entryY=1;entryDx=0;entryDy=0;edgeStyle=orthogonalEdgeStyle;" parent="1" target="BAuMj_wbTUl4ss61GLY4-1" edge="1">
          <mxGeometry width="50" height="50" relative="1" as="geometry">
            <mxPoint x="1260" y="-420" as="sourcePoint" />
            <mxPoint x="1520" y="-560" as="targetPoint" />
            <Array as="points">
              <mxPoint x="1260" y="-420" />
              <mxPoint x="1260" y="-600" />
              <mxPoint x="1290" y="-600" />
            </Array>
          </mxGeometry>
        </mxCell>
        <mxCell id="BAuMj_wbTUl4ss61GLY4-98" value="" style="endArrow=classic;html=1;rounded=0;fontSize=14;entryX=0.25;entryY=1;entryDx=0;entryDy=0;edgeStyle=orthogonalEdgeStyle;" parent="1" target="BAuMj_wbTUl4ss61GLY4-1" edge="1">
          <mxGeometry width="50" height="50" relative="1" as="geometry">
            <mxPoint x="1330" y="-420" as="sourcePoint" />
            <mxPoint x="1420" y="-490" as="targetPoint" />
          </mxGeometry>
        </mxCell>
        <mxCell id="BAuMj_wbTUl4ss61GLY4-99" value="" style="endArrow=classic;html=1;rounded=0;fontSize=14;entryX=0.5;entryY=1;entryDx=0;entryDy=0;edgeStyle=orthogonalEdgeStyle;" parent="1" target="BAuMj_wbTUl4ss61GLY4-1" edge="1">
          <mxGeometry width="50" height="50" relative="1" as="geometry">
            <mxPoint x="1400" y="-420" as="sourcePoint" />
            <mxPoint x="1430" y="-460" as="targetPoint" />
          </mxGeometry>
        </mxCell>
        <mxCell id="BAuMj_wbTUl4ss61GLY4-100" value="" style="endArrow=classic;html=1;rounded=0;fontSize=14;entryX=0.75;entryY=1;entryDx=0;entryDy=0;edgeStyle=orthogonalEdgeStyle;" parent="1" target="BAuMj_wbTUl4ss61GLY4-2" edge="1">
          <mxGeometry width="50" height="50" relative="1" as="geometry">
            <mxPoint x="1560" y="-410" as="sourcePoint" />
            <mxPoint x="1430" y="-460" as="targetPoint" />
            <Array as="points">
              <mxPoint x="1560" y="-620" />
              <mxPoint x="1525" y="-620" />
            </Array>
          </mxGeometry>
        </mxCell>
        <mxCell id="BAuMj_wbTUl4ss61GLY4-102" value="" style="endArrow=classic;html=1;rounded=0;fontSize=14;entryX=1;entryY=1;entryDx=0;entryDy=0;edgeStyle=orthogonalEdgeStyle;" parent="1" target="BAuMj_wbTUl4ss61GLY4-2" edge="1">
          <mxGeometry width="50" height="50" relative="1" as="geometry">
            <mxPoint x="1640" y="-410" as="sourcePoint" />
            <mxPoint x="1390" y="-450" as="targetPoint" />
            <Array as="points">
              <mxPoint x="1640" y="-410" />
              <mxPoint x="1640" y="-630" />
              <mxPoint x="1540" y="-630" />
            </Array>
          </mxGeometry>
        </mxCell>
        <mxCell id="BAuMj_wbTUl4ss61GLY4-104" value="" style="endArrow=classic;html=1;rounded=0;fontSize=14;exitX=1;exitY=0.5;exitDx=0;exitDy=0;" parent="1" source="BAuMj_wbTUl4ss61GLY4-1" edge="1">
          <mxGeometry width="50" height="50" relative="1" as="geometry">
            <mxPoint x="1980" y="-500" as="sourcePoint" />
            <mxPoint x="1740" y="-730" as="targetPoint" />
          </mxGeometry>
        </mxCell>
        <mxCell id="BAuMj_wbTUl4ss61GLY4-105" value="Доставленная мебель по исходному проекту" style="text;html=1;strokeColor=none;fillColor=none;align=center;verticalAlign=middle;whiteSpace=wrap;rounded=0;fontSize=14;" parent="1" vertex="1">
          <mxGeometry x="1560" y="-769.9999999999999" width="190" height="28.33" as="geometry" />
        </mxCell>
        <mxCell id="j95c34EFFZa2OJCZXb0x-1" value="" style="endArrow=classic;html=1;rounded=0;entryX=0.75;entryY=0;entryDx=0;entryDy=0;edgeStyle=orthogonalEdgeStyle;" parent="1" target="BAuMj_wbTUl4ss61GLY4-28" edge="1">
          <mxGeometry width="50" height="50" relative="1" as="geometry">
            <mxPoint x="960" y="10" as="sourcePoint" />
            <mxPoint x="1280" y="460" as="targetPoint" />
            <Array as="points">
              <mxPoint x="960" y="220" />
              <mxPoint x="2018" y="220" />
            </Array>
          </mxGeometry>
        </mxCell>
        <mxCell id="j95c34EFFZa2OJCZXb0x-2" value="" style="endArrow=classic;html=1;rounded=0;entryX=0;entryY=0.5;entryDx=0;entryDy=0;exitX=1;exitY=0.5;exitDx=0;exitDy=0;edgeStyle=orthogonalEdgeStyle;" parent="1" source="BAuMj_wbTUl4ss61GLY4-22" target="BAuMj_wbTUl4ss61GLY4-24" edge="1">
          <mxGeometry width="50" height="50" relative="1" as="geometry">
            <mxPoint x="1080" y="900" as="sourcePoint" />
            <mxPoint x="1130" y="850" as="targetPoint" />
            <Array as="points">
              <mxPoint x="860" y="420" />
              <mxPoint x="860" y="787" />
            </Array>
          </mxGeometry>
        </mxCell>
        <mxCell id="j95c34EFFZa2OJCZXb0x-3" value="Оценить скидку клиента" style="rounded=0;whiteSpace=wrap;html=1;" parent="1" vertex="1">
          <mxGeometry x="-1180" y="2380" width="250" height="140" as="geometry" />
        </mxCell>
        <mxCell id="j95c34EFFZa2OJCZXb0x-4" value="A21" style="text;html=1;strokeColor=none;fillColor=none;align=center;verticalAlign=middle;whiteSpace=wrap;rounded=0;" parent="1" vertex="1">
          <mxGeometry x="-990" y="2490" width="60" height="30" as="geometry" />
        </mxCell>
        <mxCell id="j95c34EFFZa2OJCZXb0x-16" style="edgeStyle=orthogonalEdgeStyle;rounded=0;orthogonalLoop=1;jettySize=auto;html=1;exitX=1;exitY=0.5;exitDx=0;exitDy=0;entryX=0;entryY=0.5;entryDx=0;entryDy=0;" parent="1" source="j95c34EFFZa2OJCZXb0x-5" target="j95c34EFFZa2OJCZXb0x-6" edge="1">
          <mxGeometry relative="1" as="geometry">
            <mxPoint x="-430" y="2629.6153846153843" as="targetPoint" />
          </mxGeometry>
        </mxCell>
        <mxCell id="j95c34EFFZa2OJCZXb0x-5" value="Оценить стоимость проекта" style="rounded=0;whiteSpace=wrap;html=1;" parent="1" vertex="1">
          <mxGeometry x="-830" y="2560" width="250" height="140" as="geometry" />
        </mxCell>
        <mxCell id="j95c34EFFZa2OJCZXb0x-6" value="Оформить документы для оплаты" style="rounded=0;whiteSpace=wrap;html=1;" parent="1" vertex="1">
          <mxGeometry x="-330" y="2720" width="250" height="140" as="geometry" />
        </mxCell>
        <mxCell id="j95c34EFFZa2OJCZXb0x-10" value="" style="endArrow=classic;html=1;rounded=0;exitX=1;exitY=0.5;exitDx=0;exitDy=0;edgeStyle=orthogonalEdgeStyle;entryX=0;entryY=0.75;entryDx=0;entryDy=0;" parent="1" source="j95c34EFFZa2OJCZXb0x-3" target="j95c34EFFZa2OJCZXb0x-6" edge="1">
          <mxGeometry width="50" height="50" relative="1" as="geometry">
            <mxPoint x="-960" y="2220" as="sourcePoint" />
            <mxPoint x="-780" y="2500" as="targetPoint" />
            <Array as="points">
              <mxPoint x="-490" y="2450" />
              <mxPoint x="-490" y="2825" />
            </Array>
          </mxGeometry>
        </mxCell>
        <mxCell id="j95c34EFFZa2OJCZXb0x-11" value="Скидка клиента" style="text;html=1;strokeColor=none;fillColor=none;align=center;verticalAlign=middle;whiteSpace=wrap;rounded=0;" parent="1" vertex="1">
          <mxGeometry x="-900" y="2420" width="60" height="30" as="geometry" />
        </mxCell>
        <mxCell id="j95c34EFFZa2OJCZXb0x-12" value="&lt;span style=&quot;color: rgb(0 , 0 , 0) ; font-family: &amp;#34;helvetica&amp;#34; ; font-size: 12px ; font-style: normal ; font-weight: 400 ; letter-spacing: normal ; text-align: center ; text-indent: 0px ; text-transform: none ; word-spacing: 0px ; background-color: rgb(248 , 249 , 250) ; display: inline ; float: none&quot;&gt;A22&lt;/span&gt;" style="text;whiteSpace=wrap;html=1;" parent="1" vertex="1">
          <mxGeometry x="-630" y="2670" width="50" height="30" as="geometry" />
        </mxCell>
        <mxCell id="j95c34EFFZa2OJCZXb0x-17" value="Стоимость проекта" style="text;html=1;strokeColor=none;fillColor=none;align=center;verticalAlign=middle;whiteSpace=wrap;rounded=0;" parent="1" vertex="1">
          <mxGeometry x="-555" y="2600" width="60" height="30" as="geometry" />
        </mxCell>
        <mxCell id="j95c34EFFZa2OJCZXb0x-20" value="" style="endArrow=classic;html=1;rounded=0;exitX=1;exitY=0.5;exitDx=0;exitDy=0;" parent="1" source="j95c34EFFZa2OJCZXb0x-6" edge="1">
          <mxGeometry width="50" height="50" relative="1" as="geometry">
            <mxPoint x="-300" y="2950" as="sourcePoint" />
            <mxPoint x="190" y="2790" as="targetPoint" />
          </mxGeometry>
        </mxCell>
        <mxCell id="j95c34EFFZa2OJCZXb0x-21" value="Оформленный заказ" style="text;html=1;strokeColor=none;fillColor=none;align=center;verticalAlign=middle;whiteSpace=wrap;rounded=0;fontSize=14;" parent="1" vertex="1">
          <mxGeometry x="-60" y="2750" width="120" height="30" as="geometry" />
        </mxCell>
        <mxCell id="j95c34EFFZa2OJCZXb0x-23" value="&lt;span style=&quot;color: rgb(0 , 0 , 0) ; font-family: &amp;#34;helvetica&amp;#34; ; font-size: 12px ; font-style: normal ; font-weight: 400 ; letter-spacing: normal ; text-align: center ; text-indent: 0px ; text-transform: none ; word-spacing: 0px ; background-color: rgb(248 , 249 , 250) ; display: inline ; float: none&quot;&gt;A23&lt;/span&gt;" style="text;whiteSpace=wrap;html=1;" parent="1" vertex="1">
          <mxGeometry x="-130" y="2830" width="50" height="30" as="geometry" />
        </mxCell>
        <mxCell id="X3EsQ4264umLRHrV6O9Y-10" value="&lt;span style=&quot;color: rgb(0 , 0 , 0) ; font-family: &amp;#34;helvetica&amp;#34; ; font-size: 14px ; font-style: normal ; font-weight: 400 ; letter-spacing: normal ; text-align: center ; text-indent: 0px ; text-transform: none ; word-spacing: 0px ; background-color: rgb(248 , 249 , 250) ; display: inline ; float: none&quot;&gt;Статус покупателя&lt;/span&gt;" style="text;whiteSpace=wrap;html=1;fontSize=14;" parent="1" vertex="1">
          <mxGeometry x="-1410" y="2380" width="120" height="30" as="geometry" />
        </mxCell>
        <mxCell id="X3EsQ4264umLRHrV6O9Y-16" value="&lt;h1 style=&quot;font-size: inherit ; font-weight: inherit ; margin: 0.67em 0px ; font-family: &amp;#34;pt sans&amp;#34; , sans-serif ; background-color: rgb(255 , 255 , 255)&quot;&gt;Закон РФ &quot;О защите прав потребителей&quot;&lt;/h1&gt;" style="text;html=1;strokeColor=none;fillColor=none;align=center;verticalAlign=middle;whiteSpace=wrap;rounded=0;fontSize=14;rotation=270;" parent="1" vertex="1">
          <mxGeometry x="-1060" y="2210" width="60" height="30" as="geometry" />
        </mxCell>
        <mxCell id="X3EsQ4264umLRHrV6O9Y-21" value="Проект мебели" style="text;html=1;strokeColor=none;fillColor=none;align=center;verticalAlign=middle;whiteSpace=wrap;rounded=0;fontSize=14;" parent="1" vertex="1">
          <mxGeometry x="-1410" y="2510" width="60" height="30" as="geometry" />
        </mxCell>
        <mxCell id="X3EsQ4264umLRHrV6O9Y-23" value="" style="endArrow=classic;html=1;rounded=0;fontSize=11;entryX=0;entryY=0.5;entryDx=0;entryDy=0;edgeStyle=orthogonalEdgeStyle;" parent="1" target="j95c34EFFZa2OJCZXb0x-3" edge="1">
          <mxGeometry width="50" height="50" relative="1" as="geometry">
            <mxPoint x="-1410" y="2430" as="sourcePoint" />
            <mxPoint x="-1010" y="2460" as="targetPoint" />
          </mxGeometry>
        </mxCell>
        <mxCell id="X3EsQ4264umLRHrV6O9Y-24" value="" style="endArrow=classic;html=1;rounded=0;fontSize=11;entryX=0.5;entryY=0;entryDx=0;entryDy=0;edgeStyle=orthogonalEdgeStyle;" parent="1" target="j95c34EFFZa2OJCZXb0x-3" edge="1">
          <mxGeometry width="50" height="50" relative="1" as="geometry">
            <mxPoint x="-980" y="2200" as="sourcePoint" />
            <mxPoint x="-930" y="2420" as="targetPoint" />
            <Array as="points">
              <mxPoint x="-980" y="2200" />
              <mxPoint x="-980" y="2290" />
              <mxPoint x="-1055" y="2290" />
            </Array>
          </mxGeometry>
        </mxCell>
        <mxCell id="X3EsQ4264umLRHrV6O9Y-25" value="" style="endArrow=classic;html=1;rounded=0;fontSize=11;entryX=0;entryY=0.5;entryDx=0;entryDy=0;edgeStyle=orthogonalEdgeStyle;" parent="1" target="j95c34EFFZa2OJCZXb0x-5" edge="1">
          <mxGeometry width="50" height="50" relative="1" as="geometry">
            <mxPoint x="-1410" y="2550" as="sourcePoint" />
            <mxPoint x="-920" y="2420" as="targetPoint" />
            <Array as="points">
              <mxPoint x="-1400" y="2550" />
              <mxPoint x="-1115" y="2550" />
              <mxPoint x="-1115" y="2630" />
            </Array>
          </mxGeometry>
        </mxCell>
        <mxCell id="X3EsQ4264umLRHrV6O9Y-26" value="Продавец" style="text;html=1;strokeColor=none;fillColor=none;align=center;verticalAlign=middle;whiteSpace=wrap;rounded=0;fontSize=14;rotation=-90;" parent="1" vertex="1">
          <mxGeometry x="-1170" y="2750" width="60" height="30" as="geometry" />
        </mxCell>
        <mxCell id="X3EsQ4264umLRHrV6O9Y-27" value="" style="endArrow=classic;html=1;rounded=0;fontSize=11;entryX=0.5;entryY=1;entryDx=0;entryDy=0;edgeStyle=orthogonalEdgeStyle;" parent="1" target="j95c34EFFZa2OJCZXb0x-3" edge="1">
          <mxGeometry width="50" height="50" relative="1" as="geometry">
            <mxPoint x="-1120" y="2800" as="sourcePoint" />
            <mxPoint x="-890" y="2650" as="targetPoint" />
            <Array as="points">
              <mxPoint x="-1120" y="2800" />
              <mxPoint x="-1120" y="2660" />
              <mxPoint x="-1055" y="2660" />
            </Array>
          </mxGeometry>
        </mxCell>
        <mxCell id="X3EsQ4264umLRHrV6O9Y-28" value="" style="endArrow=classic;html=1;rounded=0;fontSize=11;edgeStyle=orthogonalEdgeStyle;" parent="1" edge="1">
          <mxGeometry width="50" height="50" relative="1" as="geometry">
            <mxPoint x="-1120" y="2800" as="sourcePoint" />
            <mxPoint x="-700" y="2700" as="targetPoint" />
            <Array as="points">
              <mxPoint x="-1120" y="2750" />
              <mxPoint x="-700" y="2750" />
              <mxPoint x="-700" y="2700" />
            </Array>
          </mxGeometry>
        </mxCell>
        <mxCell id="X3EsQ4264umLRHrV6O9Y-29" value="" style="endArrow=classic;html=1;rounded=0;fontSize=11;entryX=0.5;entryY=0;entryDx=0;entryDy=0;edgeStyle=orthogonalEdgeStyle;" parent="1" target="j95c34EFFZa2OJCZXb0x-5" edge="1">
          <mxGeometry width="50" height="50" relative="1" as="geometry">
            <mxPoint x="-980" y="2180" as="sourcePoint" />
            <mxPoint x="-1090" y="2360" as="targetPoint" />
            <Array as="points">
              <mxPoint x="-980" y="2290" />
              <mxPoint x="-705" y="2290" />
            </Array>
          </mxGeometry>
        </mxCell>
        <mxCell id="X3EsQ4264umLRHrV6O9Y-31" value="" style="endArrow=classic;html=1;rounded=0;fontSize=11;entryX=0.5;entryY=1;entryDx=0;entryDy=0;edgeStyle=orthogonalEdgeStyle;" parent="1" target="j95c34EFFZa2OJCZXb0x-6" edge="1">
          <mxGeometry width="50" height="50" relative="1" as="geometry">
            <mxPoint x="-1120" y="2800" as="sourcePoint" />
            <mxPoint x="-205" y="2860" as="targetPoint" />
            <Array as="points">
              <mxPoint x="-1120" y="2750" />
              <mxPoint x="-700" y="2750" />
              <mxPoint x="-700" y="2930" />
              <mxPoint x="-205" y="2930" />
            </Array>
          </mxGeometry>
        </mxCell>
        <mxCell id="X3EsQ4264umLRHrV6O9Y-32" value="" style="endArrow=classic;html=1;rounded=0;fontSize=11;entryX=0.5;entryY=0;entryDx=0;entryDy=0;edgeStyle=orthogonalEdgeStyle;" parent="1" target="j95c34EFFZa2OJCZXb0x-6" edge="1">
          <mxGeometry width="50" height="50" relative="1" as="geometry">
            <mxPoint x="-720" y="2290" as="sourcePoint" />
            <mxPoint x="-660" y="2520" as="targetPoint" />
          </mxGeometry>
        </mxCell>
        <mxCell id="X3EsQ4264umLRHrV6O9Y-42" value="&lt;span style=&quot;color: rgb(0 , 0 , 0) ; font-family: &amp;#34;helvetica&amp;#34; ; font-size: 14px ; font-style: normal ; font-weight: 400 ; letter-spacing: normal ; text-align: center ; text-indent: 0px ; text-transform: none ; word-spacing: 0px ; background-color: rgb(248 , 249 , 250) ; display: inline ; float: none&quot;&gt;Адресс доставки&lt;/span&gt;" style="text;whiteSpace=wrap;html=1;fontSize=14;" parent="1" vertex="1">
          <mxGeometry x="1640" y="2455" width="120" height="30" as="geometry" />
        </mxCell>
        <mxCell id="X3EsQ4264umLRHrV6O9Y-43" value="Готовая мебель" style="text;html=1;strokeColor=none;fillColor=none;align=center;verticalAlign=middle;whiteSpace=wrap;rounded=0;fontSize=14;" parent="1" vertex="1">
          <mxGeometry x="1650" y="2355" width="130" height="30" as="geometry" />
        </mxCell>
        <mxCell id="X3EsQ4264umLRHrV6O9Y-44" value="Чек оплаты" style="text;html=1;strokeColor=none;fillColor=none;align=center;verticalAlign=middle;whiteSpace=wrap;rounded=0;fontSize=14;" parent="1" vertex="1">
          <mxGeometry x="1680" y="2585" width="60" height="30" as="geometry" />
        </mxCell>
        <mxCell id="X3EsQ4264umLRHrV6O9Y-45" value="Правила доставки" style="text;html=1;strokeColor=none;fillColor=none;align=center;verticalAlign=middle;whiteSpace=wrap;rounded=0;fontSize=14;rotation=270;" parent="1" vertex="1">
          <mxGeometry x="2155" y="2235" width="60" height="30" as="geometry" />
        </mxCell>
        <mxCell id="X3EsQ4264umLRHrV6O9Y-46" value="Курьер" style="text;html=1;strokeColor=none;fillColor=none;align=center;verticalAlign=middle;whiteSpace=wrap;rounded=0;fontSize=14;rotation=-90;" parent="1" vertex="1">
          <mxGeometry x="1990" y="2945" width="60" height="30" as="geometry" />
        </mxCell>
        <mxCell id="X3EsQ4264umLRHrV6O9Y-47" value="Тех. средства доставки&lt;br&gt;" style="text;html=1;strokeColor=none;fillColor=none;align=center;verticalAlign=middle;whiteSpace=wrap;rounded=0;fontSize=14;rotation=-90;" parent="1" vertex="1">
          <mxGeometry x="2155" y="2955" width="60" height="30" as="geometry" />
        </mxCell>
        <mxCell id="X3EsQ4264umLRHrV6O9Y-48" value="Правила доставки" style="text;html=1;strokeColor=none;fillColor=none;align=center;verticalAlign=middle;whiteSpace=wrap;rounded=0;fontSize=14;rotation=270;" parent="1" vertex="1">
          <mxGeometry x="4965" y="3520" width="60" height="30" as="geometry" />
        </mxCell>
        <mxCell id="X3EsQ4264umLRHrV6O9Y-49" value="Проверить статус заказа" style="rounded=0;whiteSpace=wrap;html=1;" parent="1" vertex="1">
          <mxGeometry x="1930" y="2420" width="250" height="140" as="geometry" />
        </mxCell>
        <mxCell id="X3EsQ4264umLRHrV6O9Y-50" value="A51" style="text;html=1;strokeColor=none;fillColor=none;align=center;verticalAlign=middle;whiteSpace=wrap;rounded=0;" parent="1" vertex="1">
          <mxGeometry x="2120" y="2530" width="60" height="30" as="geometry" />
        </mxCell>
        <mxCell id="X3EsQ4264umLRHrV6O9Y-51" value="" style="endArrow=classic;html=1;rounded=0;fontSize=11;entryX=0;entryY=0.5;entryDx=0;entryDy=0;edgeStyle=orthogonalEdgeStyle;" parent="1" target="X3EsQ4264umLRHrV6O9Y-49" edge="1">
          <mxGeometry width="50" height="50" relative="1" as="geometry">
            <mxPoint x="1680" y="2625" as="sourcePoint" />
            <mxPoint x="2010" y="2455" as="targetPoint" />
          </mxGeometry>
        </mxCell>
        <mxCell id="X3EsQ4264umLRHrV6O9Y-52" value="" style="endArrow=classic;html=1;rounded=0;fontSize=11;entryX=0.5;entryY=0;entryDx=0;entryDy=0;edgeStyle=orthogonalEdgeStyle;" parent="1" target="X3EsQ4264umLRHrV6O9Y-49" edge="1">
          <mxGeometry width="50" height="50" relative="1" as="geometry">
            <mxPoint x="2220" y="2195" as="sourcePoint" />
            <mxPoint x="2010" y="2455" as="targetPoint" />
            <Array as="points">
              <mxPoint x="2220" y="2205" />
              <mxPoint x="2220" y="2355" />
              <mxPoint x="2055" y="2355" />
            </Array>
          </mxGeometry>
        </mxCell>
        <mxCell id="X3EsQ4264umLRHrV6O9Y-53" value="" style="endArrow=classic;html=1;rounded=0;fontSize=11;edgeStyle=orthogonalEdgeStyle;" parent="1" target="X3EsQ4264umLRHrV6O9Y-49" edge="1">
          <mxGeometry width="50" height="50" relative="1" as="geometry">
            <mxPoint x="2070" y="2995" as="sourcePoint" />
            <mxPoint x="2050" y="2565" as="targetPoint" />
            <Array as="points">
              <mxPoint x="2070" y="2995" />
              <mxPoint x="2060" y="2995" />
            </Array>
          </mxGeometry>
        </mxCell>
        <mxCell id="X3EsQ4264umLRHrV6O9Y-54" value="Подготовить заказ к отправке" style="rounded=0;whiteSpace=wrap;html=1;" parent="1" vertex="1">
          <mxGeometry x="2385" y="2645" width="250" height="140" as="geometry" />
        </mxCell>
        <mxCell id="X3EsQ4264umLRHrV6O9Y-55" value="A52" style="text;html=1;strokeColor=none;fillColor=none;align=center;verticalAlign=middle;whiteSpace=wrap;rounded=0;" parent="1" vertex="1">
          <mxGeometry x="2575" y="2755" width="60" height="30" as="geometry" />
        </mxCell>
        <mxCell id="X3EsQ4264umLRHrV6O9Y-56" value="" style="endArrow=classic;html=1;rounded=0;fontSize=11;exitX=1;exitY=0.25;exitDx=0;exitDy=0;edgeStyle=orthogonalEdgeStyle;entryX=0;entryY=0.25;entryDx=0;entryDy=0;" parent="1" source="X3EsQ4264umLRHrV6O9Y-49" target="X3EsQ4264umLRHrV6O9Y-54" edge="1">
          <mxGeometry width="50" height="50" relative="1" as="geometry">
            <mxPoint x="2060" y="2625" as="sourcePoint" />
            <mxPoint x="2470" y="2545" as="targetPoint" />
          </mxGeometry>
        </mxCell>
        <mxCell id="X3EsQ4264umLRHrV6O9Y-57" value="Подтвержденный заказ" style="text;html=1;strokeColor=none;fillColor=none;align=center;verticalAlign=middle;whiteSpace=wrap;rounded=0;fontSize=11;" parent="1" vertex="1">
          <mxGeometry x="2260" y="2420" width="60" height="30" as="geometry" />
        </mxCell>
        <mxCell id="X3EsQ4264umLRHrV6O9Y-58" value="" style="endArrow=none;html=1;rounded=0;fontSize=11;edgeStyle=isometricEdgeStyle;" parent="1" target="X3EsQ4264umLRHrV6O9Y-59" edge="1">
          <mxGeometry width="50" height="50" relative="1" as="geometry">
            <mxPoint x="2290" y="2495" as="sourcePoint" />
            <mxPoint x="2360" y="2395" as="targetPoint" />
          </mxGeometry>
        </mxCell>
        <mxCell id="X3EsQ4264umLRHrV6O9Y-59" value="Заказ проверен на факт его оплаты и информациии о товаре" style="shape=note;size=20;whiteSpace=wrap;html=1;fontSize=11;" parent="1" vertex="1">
          <mxGeometry x="2475.000000000001" y="2295" width="100" height="100" as="geometry" />
        </mxCell>
        <mxCell id="X3EsQ4264umLRHrV6O9Y-60" value="" style="endArrow=classic;html=1;rounded=0;fontSize=11;entryX=0;entryY=0.5;entryDx=0;entryDy=0;exitX=0;exitY=1;exitDx=0;exitDy=0;edgeStyle=orthogonalEdgeStyle;" parent="1" source="X3EsQ4264umLRHrV6O9Y-43" target="X3EsQ4264umLRHrV6O9Y-54" edge="1">
          <mxGeometry width="50" height="50" relative="1" as="geometry">
            <mxPoint x="2170" y="2595" as="sourcePoint" />
            <mxPoint x="2220" y="2545" as="targetPoint" />
            <Array as="points">
              <mxPoint x="1840" y="2385" />
              <mxPoint x="1840" y="2715" />
            </Array>
          </mxGeometry>
        </mxCell>
        <mxCell id="X3EsQ4264umLRHrV6O9Y-61" value="" style="endArrow=classic;html=1;rounded=0;fontSize=11;entryX=0.5;entryY=0;entryDx=0;entryDy=0;edgeStyle=orthogonalEdgeStyle;" parent="1" target="X3EsQ4264umLRHrV6O9Y-54" edge="1">
          <mxGeometry width="50" height="50" relative="1" as="geometry">
            <mxPoint x="2220" y="2195" as="sourcePoint" />
            <mxPoint x="2220" y="2435" as="targetPoint" />
            <Array as="points">
              <mxPoint x="2220" y="2585" />
              <mxPoint x="2510" y="2585" />
            </Array>
          </mxGeometry>
        </mxCell>
        <mxCell id="X3EsQ4264umLRHrV6O9Y-63" value="" style="endArrow=classic;html=1;rounded=0;fontSize=11;entryX=0.5;entryY=1;entryDx=0;entryDy=0;edgeStyle=orthogonalEdgeStyle;" parent="1" target="X3EsQ4264umLRHrV6O9Y-54" edge="1">
          <mxGeometry width="50" height="50" relative="1" as="geometry">
            <mxPoint x="2060" y="2985" as="sourcePoint" />
            <mxPoint x="2480" y="2685" as="targetPoint" />
            <Array as="points">
              <mxPoint x="2060" y="2855" />
              <mxPoint x="2510" y="2855" />
            </Array>
          </mxGeometry>
        </mxCell>
        <mxCell id="X3EsQ4264umLRHrV6O9Y-64" value="" style="endArrow=classic;html=1;rounded=0;fontSize=11;exitX=1;exitY=0.5;exitDx=0;exitDy=0;entryX=0;entryY=0.5;entryDx=0;entryDy=0;edgeStyle=orthogonalEdgeStyle;" parent="1" source="X3EsQ4264umLRHrV6O9Y-54" target="X3EsQ4264umLRHrV6O9Y-66" edge="1">
          <mxGeometry width="50" height="50" relative="1" as="geometry">
            <mxPoint x="2400" y="2655" as="sourcePoint" />
            <mxPoint x="2850" y="2715" as="targetPoint" />
          </mxGeometry>
        </mxCell>
        <mxCell id="X3EsQ4264umLRHrV6O9Y-65" value="Упакованный заказ" style="text;html=1;strokeColor=none;fillColor=none;align=center;verticalAlign=middle;whiteSpace=wrap;rounded=0;fontSize=11;" parent="1" vertex="1">
          <mxGeometry x="2670" y="2675" width="60" height="30" as="geometry" />
        </mxCell>
        <mxCell id="X3EsQ4264umLRHrV6O9Y-66" value="Отправка заказа по указанному адресу" style="rounded=0;whiteSpace=wrap;html=1;" parent="1" vertex="1">
          <mxGeometry x="2850" y="2805" width="250" height="140" as="geometry" />
        </mxCell>
        <mxCell id="X3EsQ4264umLRHrV6O9Y-67" value="A53" style="text;html=1;strokeColor=none;fillColor=none;align=center;verticalAlign=middle;whiteSpace=wrap;rounded=0;" parent="1" vertex="1">
          <mxGeometry x="3040" y="2915" width="60" height="30" as="geometry" />
        </mxCell>
        <mxCell id="X3EsQ4264umLRHrV6O9Y-68" value="" style="endArrow=classic;html=1;rounded=0;fontSize=11;entryX=0;entryY=0.75;entryDx=0;entryDy=0;edgeStyle=orthogonalEdgeStyle;" parent="1" target="X3EsQ4264umLRHrV6O9Y-66" edge="1">
          <mxGeometry width="50" height="50" relative="1" as="geometry">
            <mxPoint x="1650" y="2495" as="sourcePoint" />
            <mxPoint x="2290" y="2675" as="targetPoint" />
            <Array as="points">
              <mxPoint x="1790" y="2495" />
              <mxPoint x="1790" y="2910" />
            </Array>
          </mxGeometry>
        </mxCell>
        <mxCell id="X3EsQ4264umLRHrV6O9Y-69" value="" style="endArrow=classic;html=1;rounded=0;fontSize=11;entryX=0.5;entryY=1;entryDx=0;entryDy=0;edgeStyle=orthogonalEdgeStyle;" parent="1" target="X3EsQ4264umLRHrV6O9Y-66" edge="1">
          <mxGeometry width="50" height="50" relative="1" as="geometry">
            <mxPoint x="2060" y="2995" as="sourcePoint" />
            <mxPoint x="2420" y="2755" as="targetPoint" />
            <Array as="points">
              <mxPoint x="2060" y="3055" />
              <mxPoint x="2975" y="3055" />
            </Array>
          </mxGeometry>
        </mxCell>
        <mxCell id="X3EsQ4264umLRHrV6O9Y-70" value="" style="endArrow=classic;html=1;rounded=0;fontSize=11;entryX=0.25;entryY=1;entryDx=0;entryDy=0;edgeStyle=orthogonalEdgeStyle;" parent="1" target="X3EsQ4264umLRHrV6O9Y-66" edge="1">
          <mxGeometry width="50" height="50" relative="1" as="geometry">
            <mxPoint x="2220" y="2935" as="sourcePoint" />
            <mxPoint x="2320" y="2665" as="targetPoint" />
            <Array as="points">
              <mxPoint x="2220" y="3015" />
              <mxPoint x="2912" y="3015" />
            </Array>
          </mxGeometry>
        </mxCell>
        <mxCell id="X3EsQ4264umLRHrV6O9Y-71" value="" style="endArrow=classic;html=1;rounded=0;fontSize=11;entryX=0.5;entryY=0;entryDx=0;entryDy=0;edgeStyle=orthogonalEdgeStyle;" parent="1" target="X3EsQ4264umLRHrV6O9Y-66" edge="1">
          <mxGeometry width="50" height="50" relative="1" as="geometry">
            <mxPoint x="2220" y="2205" as="sourcePoint" />
            <mxPoint x="2370" y="2515" as="targetPoint" />
            <Array as="points">
              <mxPoint x="2220" y="2585" />
              <mxPoint x="2975" y="2585" />
            </Array>
          </mxGeometry>
        </mxCell>
        <mxCell id="X3EsQ4264umLRHrV6O9Y-72" value="Доставленная мебель по исходному проекту" style="text;html=1;strokeColor=none;fillColor=none;align=center;verticalAlign=middle;whiteSpace=wrap;rounded=0;fontSize=14;" parent="1" vertex="1">
          <mxGeometry x="3180" y="2846.67" width="190" height="28.33" as="geometry" />
        </mxCell>
        <mxCell id="X3EsQ4264umLRHrV6O9Y-73" value="" style="endArrow=classic;html=1;rounded=0;fontSize=11;exitX=1.005;exitY=0.644;exitDx=0;exitDy=0;exitPerimeter=0;" parent="1" source="X3EsQ4264umLRHrV6O9Y-66" edge="1">
          <mxGeometry width="50" height="50" relative="1" as="geometry">
            <mxPoint x="2570" y="2905" as="sourcePoint" />
            <mxPoint x="3370" y="2895" as="targetPoint" />
          </mxGeometry>
        </mxCell>
        <mxCell id="Oa--BefYH67XBw_zB7bd-1" value="" style="endArrow=none;dashed=1;html=1;rounded=0;entryX=1;entryY=0.5;entryDx=0;entryDy=0;exitX=1;exitY=0.5;exitDx=0;exitDy=0;" edge="1" parent="1" source="BAuMj_wbTUl4ss61GLY4-67" target="BAuMj_wbTUl4ss61GLY4-1">
          <mxGeometry width="50" height="50" relative="1" as="geometry">
            <mxPoint x="1290" y="160" as="sourcePoint" />
            <mxPoint x="1340" y="110" as="targetPoint" />
          </mxGeometry>
        </mxCell>
        <mxCell id="Oa--BefYH67XBw_zB7bd-2" value="" style="endArrow=none;dashed=1;html=1;rounded=0;" edge="1" parent="1">
          <mxGeometry width="50" height="50" relative="1" as="geometry">
            <mxPoint x="100" y="350" as="sourcePoint" />
            <mxPoint x="1170" y="-830" as="targetPoint" />
          </mxGeometry>
        </mxCell>
        <mxCell id="Oa--BefYH67XBw_zB7bd-3" value="" style="endArrow=none;dashed=1;html=1;rounded=0;" edge="1" parent="1">
          <mxGeometry width="50" height="50" relative="1" as="geometry">
            <mxPoint x="140" y="430" as="sourcePoint" />
            <mxPoint x="1060" y="-750" as="targetPoint" />
          </mxGeometry>
        </mxCell>
        <mxCell id="Oa--BefYH67XBw_zB7bd-4" value="" style="endArrow=none;dashed=1;html=1;rounded=0;" edge="1" parent="1">
          <mxGeometry width="50" height="50" relative="1" as="geometry">
            <mxPoint x="50" y="520" as="sourcePoint" />
            <mxPoint x="1050" y="-670" as="targetPoint" />
          </mxGeometry>
        </mxCell>
        <mxCell id="Oa--BefYH67XBw_zB7bd-5" value="" style="endArrow=none;dashed=1;html=1;rounded=0;" edge="1" parent="1">
          <mxGeometry width="50" height="50" relative="1" as="geometry">
            <mxPoint x="120" y="600" as="sourcePoint" />
            <mxPoint x="1050" y="-600" as="targetPoint" />
          </mxGeometry>
        </mxCell>
        <mxCell id="Oa--BefYH67XBw_zB7bd-6" value="" style="endArrow=none;dashed=1;html=1;rounded=0;" edge="1" parent="1">
          <mxGeometry width="50" height="50" relative="1" as="geometry">
            <mxPoint x="90" y="2790" as="sourcePoint" />
            <mxPoint x="1290" y="610" as="targetPoint" />
          </mxGeometry>
        </mxCell>
        <mxCell id="Oa--BefYH67XBw_zB7bd-7" value="" style="endArrow=none;dashed=1;html=1;rounded=0;" edge="1" parent="1">
          <mxGeometry width="50" height="50" relative="1" as="geometry">
            <mxPoint x="-1280" y="2450" as="sourcePoint" />
            <mxPoint x="890" y="620" as="targetPoint" />
          </mxGeometry>
        </mxCell>
        <mxCell id="Oa--BefYH67XBw_zB7bd-8" value="" style="endArrow=none;dashed=1;html=1;rounded=0;" edge="1" parent="1">
          <mxGeometry width="50" height="50" relative="1" as="geometry">
            <mxPoint x="-1260" y="2550" as="sourcePoint" />
            <mxPoint x="910" y="590" as="targetPoint" />
          </mxGeometry>
        </mxCell>
        <mxCell id="Oa--BefYH67XBw_zB7bd-9" value="" style="endArrow=none;dashed=1;html=1;rounded=0;" edge="1" parent="1">
          <mxGeometry width="50" height="50" relative="1" as="geometry">
            <mxPoint x="1750" y="2622.0779854910716" as="sourcePoint" />
            <mxPoint x="2200" y="1270" as="targetPoint" />
          </mxGeometry>
        </mxCell>
        <mxCell id="Oa--BefYH67XBw_zB7bd-10" value="" style="endArrow=none;dashed=1;html=1;rounded=0;exitX=1;exitY=1;exitDx=0;exitDy=0;" edge="1" parent="1" source="X3EsQ4264umLRHrV6O9Y-43">
          <mxGeometry width="50" height="50" relative="1" as="geometry">
            <mxPoint x="2330" y="1830" as="sourcePoint" />
            <mxPoint x="2200" y="1240" as="targetPoint" />
          </mxGeometry>
        </mxCell>
        <mxCell id="Oa--BefYH67XBw_zB7bd-11" value="" style="endArrow=none;dashed=1;html=1;rounded=0;" edge="1" parent="1">
          <mxGeometry width="50" height="50" relative="1" as="geometry">
            <mxPoint x="1770" y="2490" as="sourcePoint" />
            <mxPoint x="2250" y="1300" as="targetPoint" />
          </mxGeometry>
        </mxCell>
        <mxCell id="Oa--BefYH67XBw_zB7bd-12" value="" style="endArrow=none;dashed=1;html=1;rounded=0;" edge="1" parent="1">
          <mxGeometry width="50" height="50" relative="1" as="geometry">
            <mxPoint x="3150" y="2890" as="sourcePoint" />
            <mxPoint x="2650" y="1280" as="targetPoint" />
          </mxGeometry>
        </mxCell>
      </root>
    </mxGraphModel>
  </diagram>
</mxfile>
